<?xml version="1.0" standalone="no"?>
<!DOCTYPE svg PUBLIC "-//W3C//DTD SVG 20010904//EN"
 "http://www.w3.org/TR/2001/REC-SVG-20010904/DTD/svg10.dtd">
<svg version="1.0" xmlns="http://www.w3.org/2000/svg"
 width="564.000000pt" height="564.000000pt" viewBox="0 0 564.000000 564.000000"
 preserveAspectRatio="xMidYMid meet">
<metadata>
Created by potrace 1.14, written by Peter Selinger 2001-2017
</metadata>
<g transform="translate(0.000000,564.000000) scale(0.100000,-0.100000)"
fill="#000000" stroke="none">
<path d="M2747 5623 c-4 -3 -7 -16 -7 -29 0 -12 -14 -52 -31 -88 l-31 -67 20
-57 21 -57 -26 -27 c-44 -46 -55 -38 -47 35 6 59 5 65 -22 96 -36 43 -96 71
-157 71 -59 0 -63 -9 -43 -97 18 -82 64 -133 118 -133 58 0 59 -5 51 -126 l-8
-109 -28 2 c-15 1 -60 24 -100 50 -61 40 -72 52 -69 73 1 14 5 48 8 76 7 61
-1 80 -75 160 l-54 58 -29 -34 c-35 -43 -51 -100 -43 -152 8 -48 70 -118 106
-119 17 0 38 -18 71 -58 37 -47 64 -67 132 -102 47 -24 86 -46 86 -49 0 -3
-35 -24 -79 -47 l-78 -42 -79 30 c-43 17 -80 32 -82 34 -1 1 5 15 14 32 30 52
13 97 -67 175 -38 37 -76 68 -84 68 -32 0 -46 -96 -24 -173 5 -21 23 -53 40
-71 l30 -34 -53 -16 c-29 -8 -93 -40 -141 -71 -49 -30 -90 -55 -92 -55 -2 0
-13 15 -25 34 -26 42 -88 69 -151 64 -40 -3 -44 -6 -47 -32 -7 -63 60 -146
119 -146 36 0 151 49 223 95 28 18 73 40 99 49 56 19 57 19 57 6 0 -5 -5 -10
-12 -10 -24 0 -87 -53 -103 -87 -26 -55 -15 -67 54 -60 84 9 131 33 131 68 0
60 27 76 71 40 l22 -18 -20 -29 c-12 -16 -42 -49 -67 -73 l-45 -44 -83 19
c-51 12 -118 19 -173 19 -114 -1 -187 -26 -310 -106 -101 -65 -121 -72 -110
-36 4 12 9 46 12 75 5 52 5 53 -38 93 l-44 40 -32 -35 c-49 -53 -46 -97 8
-148 23 -22 39 -41 36 -44 -2 -2 -40 -9 -83 -14 -44 -6 -98 -13 -121 -16 -46
-7 -52 0 -31 39 45 86 252 285 345 332 28 13 88 38 135 55 93 32 153 58 208
88 19 11 53 24 74 28 59 13 80 49 84 143 7 138 -29 202 -74 134 -10 -16 -42
-51 -71 -78 -57 -54 -65 -82 -42 -142 9 -24 7 -30 -11 -45 -23 -18 -145 -61
-160 -56 -6 2 6 25 25 52 28 40 35 59 35 98 0 51 -20 110 -47 140 -16 17 -19
15 -67 -38 -90 -100 -102 -138 -66 -209 11 -22 20 -43 20 -47 0 -4 -19 -17
-42 -29 -24 -12 -98 -60 -166 -106 -68 -47 -126 -83 -128 -80 -3 3 9 15 26 27
69 49 79 130 27 231 -36 70 -52 82 -66 47 -5 -13 -25 -49 -44 -81 -58 -95 -58
-110 1 -208 l22 -35 -32 -42 c-39 -51 -58 -42 -38 17 20 61 6 108 -49 163 -46
46 -87 65 -116 54 -12 -4 -15 -24 -15 -93 0 -107 18 -144 77 -163 21 -7 44
-17 51 -23 31 -25 -7 -171 -58 -219 -59 -55 -146 -44 -163 21 -19 76 -74 114
-181 127 l-59 7 5 -65 c6 -77 28 -122 71 -149 31 -20 61 -21 162 -7 11 2 21
-4 23 -14 2 -13 -9 -21 -45 -32 -26 -8 -68 -22 -93 -31 -30 -11 -60 -15 -89
-11 -111 15 -191 -57 -191 -170 0 -39 12 -42 102 -23 57 13 97 46 151 128 22
34 72 70 82 59 2 -2 -32 -51 -74 -109 -42 -58 -100 -140 -128 -182 -64 -93
-80 -99 -166 -64 -34 14 -76 29 -94 32 -47 9 -112 -23 -158 -79 l-38 -47 23
-24 c60 -64 181 -72 250 -16 25 20 40 27 40 18 0 -17 -31 -45 -99 -87 -69 -43
-91 -79 -91 -150 0 -70 16 -130 36 -130 27 0 79 27 108 56 51 52 66 95 66 186
0 59 5 90 16 106 26 37 37 27 31 -30 -3 -29 -11 -102 -16 -163 -6 -60 -14
-122 -17 -138 -12 -59 -121 -167 -169 -167 -9 0 -33 14 -52 30 -28 25 -42 30
-86 30 -64 0 -129 -29 -179 -78 -21 -20 -38 -39 -38 -43 0 -3 28 -19 63 -34
66 -30 140 -38 207 -22 l35 9 -57 -59 c-85 -86 -106 -157 -76 -254 9 -31 16
-39 35 -39 59 0 111 51 142 140 10 28 20 52 23 55 5 5 20 -129 22 -195 1 -32
-3 -36 -59 -65 -75 -39 -107 -94 -109 -185 -1 -74 8 -85 63 -70 81 22 141 97
141 178 0 21 3 42 6 45 8 8 60 -56 85 -105 41 -81 34 -167 -13 -152 -71 22
-166 -6 -223 -65 -36 -39 -29 -55 36 -89 34 -18 55 -22 94 -19 45 4 54 9 96
56 25 28 49 51 54 51 4 0 5 -28 2 -62 -6 -68 -28 -98 -73 -98 -83 0 -203 -86
-226 -162 -11 -38 -10 -42 11 -59 13 -11 41 -22 62 -25 l39 -7 -30 -33 c-36
-41 -50 -90 -41 -140 11 -58 27 -84 88 -139 l55 -50 -29 -55 c-23 -44 -28 -67
-28 -125 0 -63 4 -77 34 -127 85 -140 314 -360 409 -392 25 -9 53 -16 63 -16
12 0 24 -18 39 -57 47 -126 134 -222 224 -248 28 -8 80 -19 117 -25 36 -6 70
-14 75 -18 6 -4 21 -33 34 -65 32 -81 104 -157 182 -193 53 -24 76 -29 143
-29 72 0 90 5 179 43 55 23 102 42 105 42 4 0 26 -27 50 -60 69 -95 196 -210
276 -250 61 -31 78 -35 145 -35 98 1 185 40 270 121 l60 57 46 -52 c52 -58
107 -89 203 -115 135 -37 233 5 402 173 63 64 124 131 134 149 11 17 23 32 28
32 4 0 25 -13 45 -29 59 -47 135 -81 182 -81 48 0 139 24 190 50 48 25 154
137 170 180 19 50 23 53 93 67 84 17 191 72 254 130 42 38 59 64 81 122 l29
74 64 21 c111 36 339 229 425 360 32 48 39 68 42 122 4 54 0 72 -26 127 l-30
65 55 53 c30 30 60 65 68 79 35 68 25 148 -24 198 l-29 28 42 12 c65 17 80 33
72 74 -14 77 -122 159 -229 174 -61 8 -71 26 -71 126 -1 109 11 116 73 47 48
-54 49 -54 108 -54 61 1 115 23 137 57 8 14 5 23 -19 48 -61 64 -124 86 -202
71 -63 -12 -72 4 -40 71 30 62 83 138 97 138 6 0 10 -15 10 -34 0 -84 52 -155
133 -182 63 -21 73 -12 70 68 -3 94 -34 146 -111 183 -59 28 -62 32 -62 66 0
35 17 139 27 169 3 10 10 1 19 -24 21 -59 52 -103 88 -125 50 -31 74 -27 92
14 35 85 9 174 -78 262 l-62 62 50 -15 c29 -9 68 -13 94 -10 47 5 170 53 170
66 0 18 -69 74 -115 95 -95 42 -153 38 -199 -14 -27 -30 -56 -26 -107 13 -74
56 -100 103 -110 198 -5 46 -14 113 -19 151 -12 84 -13 137 -1 137 24 0 36
-39 41 -135 5 -90 8 -106 32 -141 32 -46 81 -81 124 -90 28 -5 31 -3 42 34 19
62 15 140 -8 177 -11 19 -44 48 -73 66 -66 41 -97 69 -97 86 0 9 15 2 40 -18
54 -43 129 -51 193 -20 24 12 52 30 61 40 16 17 15 21 -16 61 -18 24 -53 54
-78 67 -53 29 -87 26 -185 -14 -52 -21 -69 -24 -88 -16 -12 6 -66 73 -119 149
-53 77 -111 159 -129 183 -32 42 -32 43 -8 36 26 -7 50 -33 102 -105 39 -55
87 -80 158 -83 l54 -2 3 35 c3 43 -32 116 -71 144 -23 17 -44 21 -105 21 -95
1 -245 47 -240 74 2 9 12 15 23 13 100 -14 131 -13 161 6 40 26 67 83 72 156
l5 59 -62 -6 c-62 -7 -127 -33 -150 -61 -7 -8 -19 -35 -25 -58 -22 -74 -106
-89 -166 -30 -31 31 -71 131 -73 180 -1 37 9 47 66 63 61 16 78 54 75 164 -3
85 -4 90 -26 93 -36 5 -108 -43 -137 -92 -27 -46 -32 -90 -14 -130 7 -14 9
-33 5 -43 -7 -16 -9 -16 -27 7 -55 70 -55 67 -20 115 46 64 48 89 11 160 -18
33 -41 77 -52 98 -11 20 -24 37 -28 37 -14 0 -49 -55 -65 -101 -30 -85 -14
-157 45 -199 17 -12 29 -24 27 -27 -3 -2 -67 38 -144 89 -76 51 -154 101 -172
110 l-33 18 21 25 c27 36 35 78 21 121 -11 32 -109 154 -131 162 -16 6 -61
-106 -61 -152 0 -48 11 -75 50 -121 32 -38 17 -42 -63 -15 -89 30 -109 47 -96
83 23 60 15 88 -42 142 -29 27 -64 65 -76 83 -12 17 -26 32 -31 32 -30 0 -54
-145 -38 -227 9 -45 17 -59 42 -74 17 -10 45 -19 62 -19 16 0 45 -11 64 -25
31 -23 60 -35 243 -101 98 -36 127 -54 241 -156 98 -86 206 -215 206 -245 0
-12 -8 -14 -37 -10 -21 3 -76 11 -123 17 -46 6 -86 13 -89 16 -3 3 12 20 32
37 30 25 40 41 44 73 5 37 2 46 -29 80 l-35 38 -42 -41 c-34 -35 -41 -48 -41
-82 0 -22 5 -52 10 -67 21 -53 -5 -50 -106 16 -178 116 -290 131 -536 74 -23
-5 -35 3 -92 61 -36 38 -66 74 -66 80 0 7 11 16 24 19 13 3 31 9 40 12 12 5
16 0 16 -17 1 -70 32 -96 127 -105 83 -7 93 3 62 63 -20 38 -36 54 -80 76
l-54 28 48 -4 c33 -3 66 -16 105 -41 83 -54 218 -116 251 -116 56 0 125 82
119 142 -3 31 -5 33 -48 36 -66 5 -115 -13 -146 -53 -14 -19 -31 -35 -36 -35
-5 0 -46 22 -91 50 -44 27 -102 57 -129 66 -51 17 -57 24 -34 43 60 50 78 251
22 251 -18 0 -103 -76 -138 -124 -32 -44 -36 -90 -12 -124 15 -21 14 -23 -28
-41 -24 -10 -66 -25 -94 -35 l-50 -16 -87 40 c-48 23 -87 45 -87 51 0 5 37 26
83 47 59 28 98 54 136 93 29 30 74 65 99 79 57 31 72 58 72 133 0 70 -21 127
-48 127 -28 0 -98 -65 -121 -113 -17 -36 -20 -54 -15 -104 6 -58 6 -60 -24
-81 -45 -32 -55 -29 -47 16 3 20 15 62 26 93 18 47 19 62 9 98 -17 65 -108
141 -169 141 -20 0 -21 -5 -21 -77 0 -115 12 -145 70 -188 28 -20 50 -44 50
-53 0 -10 -11 -35 -23 -57 -17 -30 -29 -40 -47 -40 -23 0 -25 5 -30 55 -8 86
-50 133 -141 161 -70 22 -163 -45 -182 -131 -11 -45 5 -55 85 -54 85 1 130 20
153 64 18 35 19 35 39 14 22 -21 20 -93 -2 -120 -45 -56 -121 -67 -234 -33
-60 18 -71 24 -85 55 -15 30 -15 43 -5 91 15 72 48 114 125 159 102 59 117 78
117 146 0 72 -17 115 -59 151 -32 27 -52 33 -64 20z m-18 -763 c-12 -53 -4
-81 31 -115 26 -25 34 -27 75 -22 57 8 52 -4 -15 -38 l-48 -24 -101 65 c-56
37 -101 71 -101 78 1 17 121 96 146 96 20 0 21 -3 13 -40z m248 -26 c29 -13
53 -28 53 -33 0 -15 -52 -43 -84 -45 -26 -1 -33 4 -49 39 -11 22 -26 48 -35
58 -16 18 -15 18 23 11 22 -4 63 -18 92 -30z m-423 -134 c28 -16 68 -44 88
-62 l38 -33 -81 -87 -80 -87 -59 42 c-33 23 -78 54 -100 70 l-41 27 18 32 c22
37 128 128 150 128 8 0 39 -13 67 -30z m658 -7 c49 -52 99 -124 93 -134 -10
-15 -126 -100 -160 -116 l-33 -16 -66 56 c-36 31 -84 68 -106 83 -22 15 -40
31 -40 35 0 13 105 78 169 105 79 33 100 31 143 -13z m-1157 -144 c83 -16 82
-12 13 -152 -34 -70 -66 -127 -71 -127 -4 0 -36 24 -70 53 -68 58 -151 108
-209 127 -21 6 -38 15 -38 20 0 16 65 57 115 73 79 25 151 27 260 6z m1781
-15 c57 -19 114 -55 114 -71 0 -6 -17 -17 -37 -23 -43 -14 -158 -79 -188 -107
-54 -49 -88 -73 -97 -67 -12 8 -118 224 -118 241 0 47 214 65 326 27z m-969
-40 c82 -66 133 -116 133 -131 0 -7 -4 -13 -8 -13 -4 0 -50 -27 -101 -60 -93
-61 -94 -61 -115 -42 -11 11 -54 41 -94 66 -60 39 -71 50 -63 64 19 35 162
162 182 162 5 0 34 -21 66 -46z m-523 -67 c95 -58 97 -63 50 -125 -43 -58 -54
-64 -54 -27 0 33 -21 73 -54 105 -35 32 -56 19 -74 -45 -24 -82 6 -155 63
-155 31 0 31 -6 -1 -94 -14 -39 -36 -116 -48 -171 -12 -55 -26 -99 -31 -98
-19 3 -57 157 -62 251 -6 113 8 195 49 277 32 64 75 125 86 124 4 0 38 -19 76
-42z m1094 -75 c49 -102 67 -202 58 -312 -5 -73 -34 -190 -54 -227 -13 -22
-12 -25 -47 120 -15 60 -37 137 -51 173 l-24 64 26 0 c39 0 61 16 74 54 18 55
-11 166 -43 166 -29 0 -87 -81 -87 -119 0 -12 -4 -21 -8 -21 -15 0 -94 99 -87
110 3 5 43 32 87 60 98 60 95 61 156 -68z m-1958 37 c0 -6 -22 -48 -50 -93
-57 -96 -68 -121 -82 -196 -5 -30 -24 -77 -41 -104 -43 -67 -49 -146 -15 -196
13 -19 41 -44 61 -55 l38 -20 19 23 c37 44 51 142 30 198 -6 15 -22 40 -36 57
-29 34 -27 56 14 146 40 88 132 231 148 231 47 0 231 -133 285 -207 70 -94
166 -299 155 -330 -10 -24 -61 -14 -112 22 -65 47 -106 47 -166 1 -40 -30 -78
-92 -78 -125 0 -10 124 -41 167 -41 21 0 44 10 65 29 67 58 101 64 145 27 37
-31 163 -265 163 -301 0 -48 -54 -87 -171 -125 -172 -54 -206 -52 -173 12 9
18 19 60 22 94 5 73 -14 122 -78 194 -32 37 -41 42 -49 30 -35 -51 -40 -255
-8 -304 22 -33 21 -36 -4 -36 -37 0 -85 60 -109 135 -37 115 -25 341 23 457
13 31 20 36 58 41 74 10 139 98 139 190 0 27 -1 27 -62 27 -103 -1 -148 -43
-148 -137 0 -41 -4 -54 -19 -62 -17 -10 -19 -6 -23 49 -3 46 -10 66 -29 86
-24 26 -97 69 -105 61 -11 -11 -19 -96 -12 -124 5 -20 33 -56 70 -92 l62 -59
-18 -83 c-10 -46 -18 -124 -18 -173 0 -73 -2 -87 -11 -72 -40 64 -56 83 -86
103 -38 26 -91 30 -152 11 -46 -13 -50 -36 -19 -97 43 -86 116 -117 194 -83
l45 21 26 -30 c14 -17 25 -37 25 -45 0 -8 9 -32 20 -54 11 -22 20 -48 20 -60
0 -17 -6 -20 -42 -20 -83 1 -232 78 -329 171 -60 58 -114 152 -107 186 2 10
22 24 47 33 60 21 85 57 85 123 0 61 -21 142 -41 158 -21 18 -63 -17 -95 -81
-22 -41 -28 -68 -29 -119 l-1 -66 -15 35 c-17 38 -24 185 -10 232 13 48 31 58
100 52 78 -7 122 14 154 76 24 46 30 117 13 150 -11 21 -20 19 -122 -19 -68
-26 -103 -64 -112 -122 -7 -44 -21 -69 -39 -69 -14 0 -2 93 23 172 22 72 39
86 166 134 91 34 234 54 234 33z m2925 -53 c50 -21 98 -45 107 -53 28 -25 58
-118 58 -180 0 -47 -2 -54 -14 -44 -8 7 -18 31 -21 54 -10 59 -54 97 -148 132
-42 15 -80 25 -84 22 -12 -13 -20 -90 -13 -123 20 -87 73 -124 177 -124 84 0
88 -4 103 -98 10 -59 -3 -177 -21 -188 -5 -3 -9 19 -9 48 -1 85 -64 198 -112
198 -32 0 -65 -119 -54 -192 8 -55 34 -84 87 -98 22 -6 43 -18 46 -26 13 -35
-30 -109 -111 -189 -100 -99 -223 -166 -309 -169 -50 -1 -52 0 -51 24 2 27 41
124 64 159 l15 22 49 -21 c95 -43 182 10 217 133 7 26 5 30 -26 43 -50 21
-133 18 -172 -6 -18 -10 -41 -37 -52 -59 -34 -65 -45 -63 -38 8 5 45 1 90 -15
167 l-21 106 61 60 c65 64 82 101 74 157 -6 40 15 40 35 0 20 -39 15 -81 -17
-128 -23 -33 -30 -55 -30 -90 0 -59 15 -113 40 -143 l19 -23 37 20 c53 28 77
65 82 127 3 46 -1 62 -32 121 -20 37 -36 81 -36 98 0 32 -55 154 -111 248
l-32 54 84 -5 c68 -4 102 -12 174 -42z m-263 -71 c32 -55 58 -103 58 -106 0
-3 -14 -6 -30 -6 -34 0 -97 -45 -118 -84 -7 -13 -11 -43 -10 -67 3 -38 1 -42
-17 -40 -17 3 -21 13 -26 66 -4 40 -13 73 -26 90 -27 37 -86 55 -143 45 -44
-8 -45 -9 -42 -43 9 -87 68 -164 134 -175 30 -5 44 -15 58 -38 29 -48 53 -202
48 -314 -3 -87 -8 -106 -37 -163 -41 -80 -58 -100 -86 -100 -33 0 -38 26 -13
60 26 36 34 116 19 191 -18 83 -24 89 -61 54 -17 -17 -45 -50 -61 -74 -34 -52
-39 -119 -12 -176 12 -25 14 -38 6 -46 -14 -14 -178 -14 -230 0 -23 6 -58 27
-78 45 -42 40 -45 72 -14 131 109 204 119 219 159 240 42 22 52 19 111 -25 60
-45 75 -47 177 -23 l74 17 -6 30 c-8 38 -53 95 -95 120 -50 29 -95 24 -148
-18 -48 -37 -99 -48 -109 -23 -11 29 61 191 133 300 65 98 253 242 308 235 14
-2 38 -35 77 -103z m-1028 -17 c68 -108 136 -269 136 -325 0 -19 -5 -24 -21
-21 -16 2 -27 19 -45 68 -13 36 -34 75 -48 87 -25 21 -103 43 -156 43 l-29 0
6 -57 c9 -98 43 -134 136 -147 46 -6 101 -45 122 -86 21 -40 19 -110 -5 -165
-35 -83 -101 -185 -119 -185 -9 0 -31 15 -47 33 -47 49 -124 154 -118 159 3 3
24 1 48 -4 60 -13 107 7 129 55 24 49 22 76 -5 81 -106 22 -125 17 -163 -44
-15 -24 -34 -40 -53 -44 -43 -10 -98 18 -127 64 -29 45 -50 53 -120 42 -45 -6
-50 -10 -53 -34 -5 -39 24 -88 62 -103 21 -9 53 -12 96 -8 l64 6 -41 -49 c-22
-27 -56 -76 -76 -109 -45 -76 -79 -109 -105 -101 -32 10 -109 93 -134 144 -17
36 -23 64 -23 118 0 94 27 138 100 162 70 24 89 63 93 195 2 53 1 97 -3 97
-13 0 -112 -68 -143 -100 -46 -46 -55 -73 -42 -133 9 -41 7 -55 -9 -92 -32
-73 -91 -83 -91 -15 0 86 93 320 181 457 l34 52 105 -63 c123 -74 132 -89 107
-169 -25 -79 -22 -124 13 -180 27 -41 33 -46 50 -37 53 28 64 118 25 202 -14
29 -25 62 -25 72 0 11 20 38 44 62 50 47 172 124 199 124 10 0 31 -22 51 -52z
m-2168 -135 c-30 -209 -28 -265 10 -431 8 -35 12 -67 9 -72 -4 -6 -34 -10 -68
-10 -42 0 -85 -9 -132 -26 -38 -14 -82 -28 -98 -31 l-27 -5 6 58 c17 147 86
328 176 455 39 56 98 109 122 109 5 0 6 -21 2 -47z m3780 22 c109 -83 236
-353 258 -547 8 -70 4 -71 -104 -28 -56 22 -92 29 -142 30 -37 0 -69 4 -73 10
-3 5 4 54 15 109 24 119 26 258 5 368 -8 43 -15 79 -15 81 0 9 29 -2 56 -23z
m-1755 -662 c27 -40 49 -77 49 -82 0 -16 -55 -41 -115 -52 -56 -10 -200 2
-216 18 -9 9 105 199 144 241 l22 24 34 -39 c18 -21 55 -70 82 -110z m-1892
-25 l36 -23 -69 -5 c-66 -5 -69 -6 -111 -52 -44 -49 -69 -115 -58 -157 5 -20
10 -22 47 -16 94 16 206 95 206 145 0 25 37 27 66 5 22 -18 27 -13 -146 -147
-205 -160 -262 -245 -280 -423 -6 -55 -17 -136 -24 -179 -15 -92 -9 -124 33
-183 34 -47 86 -82 134 -90 32 -5 34 -3 41 27 9 50 7 143 -5 181 -6 20 -35 56
-67 86 -56 52 -57 54 -56 107 2 89 48 201 102 249 44 39 53 -1 22 -90 -31 -89
-24 -150 23 -202 26 -28 92 -60 125 -61 21 0 22 3 22 95 0 107 -13 151 -54
181 -32 23 -52 94 -36 123 12 24 112 113 145 131 31 17 44 6 22 -18 -28 -30
-57 -105 -57 -147 0 -50 40 -130 66 -130 25 0 94 129 94 177 0 21 -8 53 -17
73 -24 49 -11 66 68 88 103 29 309 14 309 -23 0 -5 -26 -29 -59 -54 -94 -73
-111 -139 -68 -266 25 -73 45 -85 89 -51 55 43 82 146 66 251 -8 56 -7 72 6
99 13 24 23 31 46 31 25 0 30 -4 30 -24 0 -13 -7 -43 -15 -66 -29 -83 -12
-143 62 -217 56 -56 88 -58 102 -5 15 52 14 137 -3 175 -7 18 -30 47 -50 65
-23 21 -36 41 -36 58 0 23 2 24 38 18 55 -11 102 -9 181 11 61 15 79 16 119 5
81 -22 188 -78 235 -124 65 -63 80 -97 83 -193 2 -75 7 -92 50 -185 42 -91 48
-111 48 -168 -1 -36 -8 -92 -17 -125 -9 -33 -23 -96 -31 -140 -18 -93 -117
-304 -163 -347 -15 -14 -62 -45 -103 -69 -41 -23 -95 -58 -120 -79 -97 -80
-347 -177 -512 -199 -116 -16 -159 -27 -243 -66 l-76 -34 -100 39 c-55 22
-115 40 -134 40 -19 0 -74 -13 -122 -30 -141 -49 -149 -46 -361 116 -2 1 5 19
16 41 10 21 25 59 31 85 7 25 25 61 40 79 l28 33 32 -23 c17 -12 38 -38 46
-57 7 -18 29 -43 47 -54 38 -23 115 -27 141 -7 16 11 16 15 -5 56 -28 58 -70
83 -124 75 -33 -5 -49 -1 -76 17 l-35 23 5 116 c5 132 -13 228 -67 343 -41 88
-40 130 4 215 39 76 60 183 50 252 -4 25 -22 95 -40 155 -45 148 -65 251 -65
329 0 62 2 66 33 90 45 34 116 66 150 66 24 0 26 -2 17 -20 -6 -10 -28 -25
-50 -31 -46 -14 -88 -51 -97 -86 -9 -39 3 -146 21 -181 35 -68 63 -52 125 69
43 84 48 115 30 168 -14 39 -4 53 56 75 51 20 116 13 164 -16z m3666 -12 c25
-17 26 -20 20 -81 -7 -60 -5 -66 34 -141 23 -44 50 -90 60 -104 19 -24 20 -24
40 -6 30 27 64 141 56 189 -9 49 -46 92 -103 120 -25 12 -48 28 -50 35 -10 32
99 -3 165 -54 32 -24 33 -28 33 -94 0 -64 -16 -139 -93 -420 -18 -67 -19 -85
-9 -162 8 -69 18 -101 46 -150 l35 -63 -13 -80 c-8 -48 -28 -111 -50 -157 -52
-111 -69 -194 -63 -306 l5 -92 -36 -25 c-31 -21 -44 -24 -83 -19 -41 6 -50 3
-77 -22 -38 -35 -68 -99 -50 -110 6 -4 37 -7 69 -7 68 0 104 20 125 68 18 44
73 88 92 73 20 -17 40 -60 63 -133 11 -35 24 -67 29 -70 20 -12 9 -25 -62 -79
-135 -100 -169 -106 -308 -57 -47 17 -93 31 -103 31 -10 0 -65 -18 -121 -40
-56 -22 -108 -40 -114 -40 -7 0 -28 18 -48 39 -42 47 -90 66 -199 81 -123 17
-274 65 -419 134 -156 75 -196 105 -196 149 -1 52 -33 108 -101 173 -35 33
-74 67 -87 76 -17 11 -29 38 -43 93 -11 43 -33 103 -49 134 -53 107 -63 233
-24 341 12 35 14 61 8 115 -18 164 4 244 92 324 30 28 80 60 112 73 53 21 71
23 242 23 102 -1 197 -4 213 -8 43 -12 36 -47 -17 -91 -27 -22 -49 -51 -57
-73 -13 -41 -7 -179 10 -196 30 -30 126 48 156 127 17 45 17 49 1 104 -24 77
-19 106 16 110 23 3 31 -3 45 -32 14 -31 15 -46 6 -106 -18 -117 26 -239 92
-256 35 -9 42 0 65 72 39 127 22 188 -71 260 -33 25 -59 49 -59 54 0 13 63 28
152 36 57 5 94 2 148 -11 85 -21 102 -42 76 -93 -26 -50 -20 -99 22 -177 21
-38 45 -71 53 -73 22 -4 69 87 69 134 0 41 -30 116 -57 146 -9 10 -13 21 -10
25 11 11 57 -19 119 -76 55 -51 58 -55 58 -101 0 -44 -4 -52 -42 -89 l-43 -40
-3 -116 c-4 -115 -4 -115 20 -115 37 1 102 34 131 69 33 40 43 93 28 146 -30
107 -35 135 -23 147 30 30 104 -88 128 -203 17 -84 10 -108 -53 -163 -58 -51
-73 -87 -73 -178 0 -108 6 -121 46 -115 48 8 120 61 149 111 27 47 31 86 15
175 -5 31 -14 103 -20 160 -20 201 -85 289 -367 498 -40 30 -73 58 -73 64 0
12 61 39 72 33 5 -3 8 -15 8 -27 1 -45 62 -94 158 -126 90 -31 92 -30 92 32 0
106 -96 198 -187 181 -35 -7 -37 -6 -24 9 31 39 155 46 206 13z m-4517 -198
c-3 -7 -11 -13 -18 -13 -7 0 -15 6 -17 13 -3 7 4 12 17 12 13 0 20 -5 18 -12z
m5225 -3 c1 -5 -6 -11 -15 -13 -11 -2 -18 3 -18 13 0 17 30 18 33 0z m-4888
-73 c4 -20 29 -102 56 -182 51 -152 59 -212 36 -280 -31 -89 -95 -25 -147 149
-19 62 -22 89 -18 189 5 134 28 212 53 179 7 -10 16 -35 20 -55z m4552 21 c9
-23 18 -81 21 -143 6 -126 -10 -199 -65 -310 -32 -63 -42 -75 -62 -75 -20 0
-27 7 -34 35 -16 60 -1 170 38 286 20 59 40 129 46 154 18 85 19 90 30 90 5 0
17 -17 26 -37z m-4718 -25 c0 -18 -4 -53 -8 -78 l-7 -45 -6 64 c-4 35 -4 70
-1 77 10 26 23 14 22 -18z m4852 -39 c-4 -42 -5 -43 -12 -14 -3 17 -7 44 -7
60 -1 26 0 28 11 14 8 -11 11 -34 8 -60z m-4606 -922 c9 -41 15 -103 13 -142
-3 -63 -5 -70 -23 -67 -11 1 -46 5 -78 9 l-59 6 31 24 c42 33 61 73 61 125 0
50 17 118 30 118 5 0 16 -33 25 -73z m4364 -69 c1 -63 15 -95 58 -134 l37 -34
-51 0 c-29 0 -63 -4 -76 -9 -20 -8 -27 -6 -31 5 -15 40 1 199 26 263 l10 26
13 -35 c8 -19 14 -56 14 -82z m-4440 -204 c25 -5 30 -11 25 -23 -4 -9 -17 -51
-29 -95 -28 -95 -44 -115 -74 -94 -54 38 -97 127 -79 163 23 44 85 63 157 49z
m4575 -44 c14 -5 32 -20 41 -34 22 -34 7 -80 -45 -138 -48 -54 -67 -47 -93 38
-10 32 -25 74 -33 92 -8 18 -12 38 -9 43 8 12 107 12 139 -1z m-2526 -221 c2
-27 -4 -44 -28 -73 -16 -21 -30 -44 -30 -51 0 -31 -106 -85 -167 -85 -20 0
-23 5 -23 43 0 61 22 84 116 128 46 21 88 48 94 59 16 30 34 19 38 -21z
m-2030 -149 c20 -31 22 -44 20 -142 l-2 -109 -37 43 c-21 24 -46 63 -55 87
-15 37 -16 50 -5 89 21 81 40 89 79 32z m1583 19 c15 -28 4 -94 -24 -144 -26
-46 -75 -77 -170 -106 -96 -30 -101 -26 -94 71 4 44 11 88 16 99 16 29 60 53
141 77 96 29 117 29 131 3z m1451 -5 c34 -30 58 -96 65 -178 l6 -76 -46 14
c-72 22 -145 83 -166 139 -17 45 -14 104 7 117 26 16 109 6 134 -16z m1458
-46 c11 -24 20 -56 20 -72 0 -40 -33 -105 -72 -143 l-33 -32 -3 100 c-1 61 2
108 9 122 11 22 49 67 56 67 2 0 13 -19 23 -42z m-1209 16 c112 -21 238 -86
226 -117 -10 -26 -112 -76 -186 -92 -40 -8 -76 -15 -81 -15 -4 0 -11 31 -15
68 -4 37 -15 91 -24 120 -10 29 -15 52 -11 52 4 0 45 -7 91 -16z m-2051 -26
c0 -2 -7 -21 -15 -43 -8 -22 -14 -66 -15 -97 0 -56 -1 -58 -26 -58 -51 0 -324
124 -308 140 20 18 124 43 214 50 123 9 150 11 150 8z m-659 -95 c7 -7 -10
-26 -56 -63 -66 -52 -144 -140 -170 -189 -7 -15 -16 -43 -20 -64 -9 -45 -22
-46 -90 -9 -60 33 -85 76 -85 149 0 82 39 119 180 169 53 19 81 23 148 21 45
-2 87 -8 93 -14z m3509 -2 c137 -39 200 -88 200 -155 0 -67 -66 -183 -120
-211 -46 -24 -60 -20 -60 19 0 51 -36 156 -72 210 -27 41 -92 95 -132 109 -16
6 -2 17 41 32 51 19 67 18 143 -4z m-3296 -127 c58 -37 106 -70 106 -74 0 -17
-59 -49 -136 -74 -71 -23 -85 -32 -114 -71 l-34 -45 -70 0 c-94 0 -116 7 -116
34 0 50 33 130 68 167 39 42 159 128 179 129 6 0 59 -30 117 -66z m1485 42
c13 -7 45 -42 72 -77 36 -48 45 -68 38 -80 -9 -18 -125 -98 -171 -120 -26 -11
-33 -9 -98 35 -39 26 -73 53 -76 61 -11 28 88 145 151 178 37 20 53 20 84 3z
m1553 -34 c57 -25 124 -85 147 -131 10 -20 21 -57 24 -82 l6 -47 -97 1 c-84 1
-105 -3 -152 -25 -78 -35 -119 -74 -148 -138 l-24 -55 -17 24 c-37 53 -106
122 -152 151 -43 28 -109 112 -109 139 0 5 44 23 98 40 63 19 140 54 211 95
122 70 119 70 213 28z m-1095 -37 c46 -25 129 -64 186 -87 83 -34 117 -42 185
-46 79 -4 83 -6 98 -34 19 -36 14 -44 -32 -51 -20 -3 -81 -32 -137 -64 -83
-47 -110 -58 -159 -61 l-58 -4 -63 64 c-49 50 -71 83 -95 141 -38 89 -44 187
-14 187 3 0 43 -20 89 -45z m-917 6 c31 -58 -6 -162 -89 -253 -95 -103 -178
-122 -266 -59 -23 17 -68 40 -99 51 -54 21 -66 32 -47 45 5 3 12 19 16 35 6
29 8 30 65 30 105 0 181 32 324 135 54 40 81 44 96 16z m-712 -113 c59 -14 92
-27 92 -35 0 -8 -9 -32 -20 -53 -17 -33 -33 -46 -93 -74 -39 -19 -103 -55
-142 -80 -38 -25 -76 -46 -82 -46 -7 0 -19 13 -27 29 -18 33 -93 101 -113 101
-15 0 -17 14 -3 39 12 23 47 37 124 51 63 11 89 28 113 73 11 22 20 28 36 23
12 -3 64 -15 115 -28z m1386 -125 c148 -254 189 -436 131 -590 -27 -70 -71
-136 -113 -168 -14 -10 -46 -20 -71 -23 -40 -3 -53 1 -95 30 -79 54 -79 50 -6
200 l65 132 0 96 c0 112 -18 161 -86 234 -23 26 -40 49 -37 52 6 5 162 113
165 114 0 0 22 -35 47 -77z m-431 -7 c61 -39 67 -50 39 -65 -11 -6 -35 -34
-55 -63 -51 -73 -61 -135 -44 -265 15 -111 21 -125 117 -238 63 -74 63 -79 6
-123 -22 -17 -42 -22 -88 -22 -96 0 -142 29 -188 118 -46 89 -36 335 20 484
30 80 111 220 124 215 7 -3 38 -21 69 -41z m-1426 -95 c37 -17 103 -89 103
-112 0 -13 -100 -32 -141 -26 -22 3 -55 16 -74 28 -34 24 -85 93 -85 116 0 22
146 17 197 -6z m2703 -14 c49 -23 122 -93 146 -139 28 -54 -3 -62 -98 -23 -34
14 -73 25 -88 25 -60 0 -123 -32 -195 -101 -40 -38 -77 -69 -82 -69 -12 0 -77
87 -99 134 l-19 38 30 24 c37 29 199 111 257 129 50 16 85 12 148 -18z m645
11 c-26 -84 -103 -174 -179 -209 -48 -22 -116 -25 -116 -6 0 40 39 141 65 169
52 55 83 68 163 68 71 0 73 -1 67 -22z m-1748 -20 c31 -34 40 -58 48 -119 8
-65 -6 -167 -35 -260 -30 -96 -33 -99 -69 -65 -46 44 -74 119 -79 212 -4 72
-1 89 20 135 24 53 73 119 87 119 4 0 17 -10 28 -22z m-936 -7 c73 -25 130
-54 152 -79 43 -48 40 -122 -9 -173 l-25 -27 -62 63 c-91 93 -139 102 -335 63
-98 -19 -114 -20 -122 -8 -17 26 -11 34 63 81 157 101 228 118 338 80z m403
-243 c2 -13 12 -76 21 -141 13 -99 42 -201 80 -289 11 -28 -21 -23 -101 16
-77 37 -131 90 -178 175 l-27 51 52 73 c94 131 143 168 153 115z m1107 -1 c14
-12 54 -52 88 -89 l63 -67 -62 -91 c-76 -110 -144 -173 -210 -195 -77 -26 -91
-2 -42 76 15 24 33 57 40 73 24 54 62 218 62 267 0 57 17 64 61 26z m-1581
-22 c30 -16 120 -94 120 -104 0 -4 -41 -20 -91 -36 -112 -34 -178 -32 -239 9
-68 45 -101 118 -60 131 78 25 222 25 270 0z m2150 15 c143 -27 152 -36 101
-107 -38 -52 -109 -87 -176 -87 -56 0 -138 25 -175 53 l-24 19 29 43 c20 28
47 50 80 66 55 25 87 28 165 13z"/>
</g>
</svg>
